<?xml version="1.0" standalone="no"?>
<!DOCTYPE svg PUBLIC "-//W3C//DTD SVG 20010904//EN"
 "http://www.w3.org/TR/2001/REC-SVG-20010904/DTD/svg10.dtd">
<svg version="1.0" xmlns="http://www.w3.org/2000/svg"
 width="180.000000pt" height="180.000000pt" viewBox="0 0 180.000000 180.000000"
 preserveAspectRatio="xMidYMid meet">
<metadata>
Created by potrace 1.14, written by Peter Selinger 2001-2017
</metadata>
<g transform="translate(0.000000,180.000000) scale(0.100000,-0.100000)"
fill="#000000" stroke="none">
<path d="M789 1795 c-3 -2 -25 -7 -49 -10 -24 -3 -83 -19 -132 -36 -280 -96
-486 -313 -574 -606 -24 -79 -27 -104 -27 -238 0 -121 4 -165 21 -228 105
-387 431 -652 827 -674 431 -23 817 267 922 693 23 94 23 314 0 407 -34 138
-115 294 -208 400 -98 114 -285 226 -444 268 -74 19 -323 37 -336 24z"/>
</g>
</svg>
